<svg width="897" height="145" viewBox="0 0 897 145" fill="none" xmlns="http://www.w3.org/2000/svg">
<path d="M118.895 63.6883C118.227 63.4115 117.457 63.5642 116.946 64.0771L97.5149 83.5062L14.5312 0.524851C14.1972 0.188469 13.7415 0 13.2668 0H1.78926C0.80159 0 0 0.80159 0 1.78926V9.21113C0 9.68588 0.188472 10.1416 0.524854 10.4755L96.2505 106.201C96.5845 106.538 97.0402 106.726 97.5149 106.726C97.9897 106.726 98.4453 106.538 98.7793 106.201L119.475 85.5054C119.812 85.1714 120 84.7157 120 84.2409V65.3416C120 64.6187 119.563 63.965 118.895 63.6883Z" fill="url(#paint0_linear_148_3)"/>
<path d="M119.475 29.2461L90.7539 0.524851C90.4199 0.188469 89.9642 0 89.4895 0H28.3634C27.6406 0 26.9869 0.436581 26.7101 1.10457C26.4334 1.77256 26.5861 2.54314 27.099 3.05368L96.1908 72.1455C96.5248 72.4819 96.9805 72.6704 97.4553 72.6704C97.93 72.6704 98.3857 72.4819 98.7197 72.1455L119.475 51.3901C119.812 51.0561 120 50.6004 120 50.1256V30.5105C120 30.0358 119.812 29.5801 119.475 29.2461ZM103.062 43.8441L97.4553 49.4505L64.9431 16.9384H83.208L103.062 36.792V43.8441Z" fill="url(#paint1_linear_148_3)"/>
<path d="M29.0576 48.3315C28.5471 47.8186 27.7765 47.6659 27.1085 47.9426C26.4406 48.2194 26.004 48.873 26.004 49.5959V76.8834C26.004 77.3581 26.1924 77.8138 26.5288 78.1478L39.8887 91.5076C40.3992 92.0206 41.1698 92.1732 41.8378 91.8965C42.5058 91.6198 42.9423 90.9661 42.9423 90.2432V86.2925L48.4771 91.8249C48.6083 91.9561 48.7563 92.0635 48.9137 92.147L68.8938 112.125L60 121.021L16.9384 77.9593V36.9518C16.9384 36.477 16.7499 36.0214 16.4135 35.6874L3.05367 22.3275C2.54314 21.8146 1.77257 21.6619 1.10457 21.9387C0.436582 22.2154 0 22.8691 0 23.5919V84.2408C0 84.7156 0.188472 85.1713 0.524854 85.5053L58.7356 143.716C59.0696 144.052 59.5252 144.241 60 144.241C60.4747 144.241 60.9304 144.052 61.2644 143.716L91.5889 113.392C92.2879 112.693 92.2879 111.562 91.5889 110.863L29.0576 48.3315Z" fill="url(#paint2_linear_148_3)"/>
<path d="M897 31L858.959 114H847.153L809.162 31H820.918L853.056 101.209L885.194 31H897Z" fill="#FCFCFC"/>
<path d="M803.411 114H728.59V31H803.411V42.8654H738.932V102.135H803.411V114ZM794.632 78.4616H744.079V66.5962H794.632V78.4616Z" fill="#FCFCFC"/>
<path d="M715.371 72.5C715.371 78.2494 714.564 83.6516 712.949 88.7064C711.368 93.7613 709.115 98.1602 706.189 101.903C703.262 105.646 699.747 108.598 695.644 110.759C691.574 112.92 687.05 114 682.072 114H645.595V102.135H682.072C685.638 102.135 688.833 101.363 691.658 99.8194C694.517 98.2759 696.922 96.1729 698.873 93.5105C700.857 90.8094 702.371 87.6646 703.414 84.076C704.49 80.4489 705.028 76.5902 705.028 72.5C705.028 68.4098 704.49 64.5704 703.414 60.9819C702.371 57.3933 700.857 54.2678 698.873 51.6053C696.922 48.9042 694.517 46.782 691.658 45.2385C688.833 43.6564 685.638 42.8654 682.072 42.8654H640.449V114H630.106V31H682.072C687.05 31 691.574 32.0997 695.644 34.2992C699.747 36.46 703.262 39.4312 706.189 43.2127C709.115 46.9556 711.368 51.3545 712.949 56.4093C714.564 61.4256 715.371 66.7892 715.371 72.5Z" fill="#FCFCFC"/>
<path d="M617.241 114H542.42V31H617.241V42.8654H552.763V102.135H617.241V114ZM608.462 78.4616H557.909V66.5962H608.462V78.4616Z" fill="#FCFCFC"/>
<path d="M532.228 31L494.187 114H482.381L444.391 31H456.146L488.284 101.209L520.423 31H532.228Z" fill="#FCFCFC"/>
<path d="M434.098 114H423.755V31H434.098V114Z" fill="#FCFCFC"/>
<path d="M413.968 114H344.848V31H355.19V102.135H413.968V114Z" fill="#FCFCFC"/>
<path d="M331.629 72.5C331.629 78.2494 330.839 83.6516 329.258 88.7064C327.677 93.7613 325.423 98.1602 322.497 101.903C319.605 105.646 316.123 108.598 312.054 110.759C307.984 112.92 303.46 114 298.482 114H274.416C269.404 114 264.847 112.92 260.743 110.759C256.64 108.598 253.125 105.646 250.199 101.903C247.306 98.1602 245.069 93.7613 243.489 88.7064C241.908 83.6516 241.117 78.2494 241.117 72.5C241.117 66.7892 241.908 61.4256 243.489 56.4093C245.069 51.3545 247.306 46.9556 250.199 43.2127C253.125 39.4312 256.64 36.46 260.743 34.2992C264.847 32.0997 269.404 31 274.416 31H298.482C303.46 31 307.984 32.0997 312.054 34.2992C316.123 36.46 319.605 39.4312 322.497 43.2127C325.423 46.9556 327.677 51.3545 329.258 56.4093C330.839 61.4256 331.629 66.7892 331.629 72.5ZM321.286 72.5C321.286 68.4098 320.765 64.5704 319.722 60.9819C318.68 57.3933 317.166 54.2678 315.182 51.6053C313.231 48.9042 310.843 46.782 308.017 45.2385C305.226 43.6564 302.047 42.8654 298.482 42.8654H274.416C270.851 42.8654 267.639 43.6564 264.78 45.2385C261.954 46.782 259.549 48.9042 257.565 51.6053C255.614 54.2678 254.1 57.3933 253.024 60.9819C251.981 64.5704 251.46 68.4098 251.46 72.5C251.46 76.5902 251.981 80.4489 253.024 84.076C254.1 87.6646 255.614 90.8094 257.565 93.5105C259.549 96.1729 261.954 98.2759 264.78 99.8194C267.639 101.363 270.851 102.135 274.416 102.135H298.482C302.047 102.135 305.226 101.363 308.017 99.8194C310.843 98.2759 313.231 96.1729 315.182 93.5105C317.166 90.8094 318.68 87.6646 319.722 84.076C320.765 80.4489 321.286 76.5902 321.286 72.5Z" fill="#FCFCFC"/>
<path d="M229.866 114H183.299C178.287 114 173.73 112.92 169.626 110.759C165.523 108.598 162.008 105.646 159.081 101.903C156.189 98.1602 153.952 93.7613 152.371 88.7064C150.79 83.6516 150 78.2494 150 72.5C150 66.7892 150.79 61.4256 152.371 56.4093C153.952 51.3545 156.189 46.9556 159.081 43.2127C162.008 39.4312 165.523 36.46 169.626 34.2992C173.73 32.0997 178.287 31 183.299 31H229.866V42.8654H183.299C179.733 42.8654 176.521 43.6564 173.662 45.2385C170.837 46.782 168.432 48.9042 166.448 51.6053C164.497 54.2678 162.983 57.3933 161.907 60.9819C160.864 64.5704 160.343 68.4098 160.343 72.5C160.343 76.5902 160.864 80.4489 161.907 84.076C162.983 87.6646 164.497 90.8094 166.448 93.5105C168.432 96.1729 170.837 98.2759 173.662 99.8194C176.521 101.363 179.733 102.135 183.299 102.135H219.524V78.4616H175.731V66.5962H229.866V114Z" fill="#FCFCFC"/>
<defs>
<linearGradient id="paint0_linear_148_3" x1="116" y1="104.328" x2="46.1438" y2="-25.3902" gradientUnits="userSpaceOnUse">
<stop stop-color="#CC8AFF"/>
<stop offset="1" stop-color="#7800F7"/>
</linearGradient>
<linearGradient id="paint1_linear_148_3" x1="116.886" y1="71.0376" x2="72.9645" y2="-22.2173" gradientUnits="userSpaceOnUse">
<stop stop-color="#CC8AFF"/>
<stop offset="1" stop-color="#7800F7"/>
</linearGradient>
<linearGradient id="paint2_linear_148_3" x1="89.0427" y1="141.49" x2="-4.72511" y2="24.9851" gradientUnits="userSpaceOnUse">
<stop stop-color="#CC8AFF"/>
<stop offset="1" stop-color="#7800F7"/>
</linearGradient>
</defs>
</svg>
